<mxfile host="app.diagrams.net" agent="Mozilla/5.0 (Windows NT 10.0; Win64; x64) AppleWebKit/537.36 (KHTML, like Gecko) Chrome/129.0.0.0 Safari/537.36" version="24.7.17">
  <diagram name="Trang-1" id="yEuiFoIGrTHZl7ALu6An">
    <mxGraphModel dx="2736" dy="1122" grid="1" gridSize="10" guides="1" tooltips="1" connect="1" arrows="1" fold="1" page="1" pageScale="1" pageWidth="827" pageHeight="1169" math="0" shadow="0">
      <root>
        <mxCell id="0" />
        <mxCell id="1" parent="0" />
        <mxCell id="DW6Q15kop0yDBr9HgBJc-14" style="edgeStyle=orthogonalEdgeStyle;rounded=0;orthogonalLoop=1;jettySize=auto;html=1;endArrow=openThin;endFill=0;" parent="1" source="DW6Q15kop0yDBr9HgBJc-1" target="DW6Q15kop0yDBr9HgBJc-7" edge="1">
          <mxGeometry relative="1" as="geometry">
            <mxPoint x="160" y="241" as="sourcePoint" />
          </mxGeometry>
        </mxCell>
        <mxCell id="DW6Q15kop0yDBr9HgBJc-15" style="edgeStyle=orthogonalEdgeStyle;rounded=0;orthogonalLoop=1;jettySize=auto;html=1;entryX=0;entryY=0.5;entryDx=0;entryDy=0;endArrow=openThin;endFill=0;" parent="1" source="DW6Q15kop0yDBr9HgBJc-1" target="DW6Q15kop0yDBr9HgBJc-5" edge="1">
          <mxGeometry relative="1" as="geometry">
            <mxPoint x="160" y="230" as="sourcePoint" />
          </mxGeometry>
        </mxCell>
        <mxCell id="DW6Q15kop0yDBr9HgBJc-49" style="edgeStyle=orthogonalEdgeStyle;rounded=0;orthogonalLoop=1;jettySize=auto;html=1;entryX=0;entryY=0.5;entryDx=0;entryDy=0;endArrow=openThin;endFill=0;" parent="1" source="DW6Q15kop0yDBr9HgBJc-1" target="DW6Q15kop0yDBr9HgBJc-42" edge="1">
          <mxGeometry relative="1" as="geometry" />
        </mxCell>
        <mxCell id="DW6Q15kop0yDBr9HgBJc-60" style="edgeStyle=orthogonalEdgeStyle;rounded=0;orthogonalLoop=1;jettySize=auto;html=1;endArrow=openThin;endFill=0;" parent="1" source="DW6Q15kop0yDBr9HgBJc-1" target="DW6Q15kop0yDBr9HgBJc-53" edge="1">
          <mxGeometry relative="1" as="geometry">
            <Array as="points">
              <mxPoint x="140" y="359" />
              <mxPoint x="140" y="610" />
              <mxPoint x="200" y="610" />
            </Array>
          </mxGeometry>
        </mxCell>
        <mxCell id="RYY4jtcMpG90oxifFVs--2" style="edgeStyle=orthogonalEdgeStyle;rounded=0;orthogonalLoop=1;jettySize=auto;html=1;endArrow=openThin;endFill=0;" parent="1" source="DW6Q15kop0yDBr9HgBJc-1" target="RYY4jtcMpG90oxifFVs--1" edge="1">
          <mxGeometry relative="1" as="geometry" />
        </mxCell>
        <mxCell id="RYY4jtcMpG90oxifFVs--24" style="edgeStyle=orthogonalEdgeStyle;rounded=0;orthogonalLoop=1;jettySize=auto;html=1;endArrow=openThin;endFill=0;" parent="1" source="DW6Q15kop0yDBr9HgBJc-1" target="RYY4jtcMpG90oxifFVs--23" edge="1">
          <mxGeometry relative="1" as="geometry" />
        </mxCell>
        <mxCell id="JTcFIvKp1Fa_ZqujpI_b-5" style="edgeStyle=orthogonalEdgeStyle;rounded=0;orthogonalLoop=1;jettySize=auto;html=1;endArrow=openThin;endFill=0;" edge="1" parent="1" source="DW6Q15kop0yDBr9HgBJc-1" target="JTcFIvKp1Fa_ZqujpI_b-7">
          <mxGeometry relative="1" as="geometry" />
        </mxCell>
        <mxCell id="DW6Q15kop0yDBr9HgBJc-1" value="Quản lý trọ" style="shape=umlActor;verticalLabelPosition=bottom;verticalAlign=top;html=1;outlineConnect=0;" parent="1" vertex="1">
          <mxGeometry x="60" y="329" width="30" height="60" as="geometry" />
        </mxCell>
        <mxCell id="DW6Q15kop0yDBr9HgBJc-40" style="edgeStyle=orthogonalEdgeStyle;rounded=0;orthogonalLoop=1;jettySize=auto;html=1;exitX=0.5;exitY=0;exitDx=0;exitDy=0;startArrow=block;startFill=0;endArrow=none;endFill=0;" parent="1" source="DW6Q15kop0yDBr9HgBJc-5" target="DW6Q15kop0yDBr9HgBJc-37" edge="1">
          <mxGeometry relative="1" as="geometry" />
        </mxCell>
        <mxCell id="DW6Q15kop0yDBr9HgBJc-5" value="Quản lý hợp đồng" style="ellipse;whiteSpace=wrap;html=1;" parent="1" vertex="1">
          <mxGeometry x="240" y="410" width="181" height="80" as="geometry" />
        </mxCell>
        <mxCell id="DW6Q15kop0yDBr9HgBJc-7" value="Quản lý cư dân" style="ellipse;whiteSpace=wrap;html=1;" parent="1" vertex="1">
          <mxGeometry x="240" y="270" width="181" height="80" as="geometry" />
        </mxCell>
        <mxCell id="DW6Q15kop0yDBr9HgBJc-38" value="&amp;lt;&amp;lt;include&amp;gt;&amp;gt;" style="edgeStyle=orthogonalEdgeStyle;rounded=0;orthogonalLoop=1;jettySize=auto;html=1;entryX=1;entryY=0.5;entryDx=0;entryDy=0;endArrow=openThin;endFill=0;dashed=1;dashPattern=12 12;" parent="1" source="DW6Q15kop0yDBr9HgBJc-12" target="DW6Q15kop0yDBr9HgBJc-37" edge="1">
          <mxGeometry x="0.2941" relative="1" as="geometry">
            <Array as="points">
              <mxPoint x="740" y="200" />
              <mxPoint x="740" y="390" />
            </Array>
            <mxPoint as="offset" />
          </mxGeometry>
        </mxCell>
        <mxCell id="DW6Q15kop0yDBr9HgBJc-12" value="Thêm cư dân" style="ellipse;whiteSpace=wrap;html=1;" parent="1" vertex="1">
          <mxGeometry x="570" y="180" width="150" height="40" as="geometry" />
        </mxCell>
        <mxCell id="DW6Q15kop0yDBr9HgBJc-34" style="edgeStyle=orthogonalEdgeStyle;rounded=0;orthogonalLoop=1;jettySize=auto;html=1;exitX=0;exitY=0.5;exitDx=0;exitDy=0;entryX=1;entryY=0.5;entryDx=0;entryDy=0;endArrow=block;endFill=0;" parent="1" source="DW6Q15kop0yDBr9HgBJc-17" target="DW6Q15kop0yDBr9HgBJc-7" edge="1">
          <mxGeometry relative="1" as="geometry" />
        </mxCell>
        <mxCell id="DW6Q15kop0yDBr9HgBJc-17" value="Xóa cư dân" style="ellipse;whiteSpace=wrap;html=1;" parent="1" vertex="1">
          <mxGeometry x="570" y="320" width="150" height="40" as="geometry" />
        </mxCell>
        <mxCell id="DW6Q15kop0yDBr9HgBJc-33" style="edgeStyle=orthogonalEdgeStyle;rounded=0;orthogonalLoop=1;jettySize=auto;html=1;exitX=0;exitY=0.5;exitDx=0;exitDy=0;entryX=1;entryY=0;entryDx=0;entryDy=0;endArrow=block;endFill=0;" parent="1" source="DW6Q15kop0yDBr9HgBJc-18" target="DW6Q15kop0yDBr9HgBJc-7" edge="1">
          <mxGeometry relative="1" as="geometry" />
        </mxCell>
        <mxCell id="DW6Q15kop0yDBr9HgBJc-18" value="Sửa cư dân" style="ellipse;whiteSpace=wrap;html=1;" parent="1" vertex="1">
          <mxGeometry x="570" y="250" width="150" height="40" as="geometry" />
        </mxCell>
        <mxCell id="DW6Q15kop0yDBr9HgBJc-29" style="edgeStyle=orthogonalEdgeStyle;rounded=0;orthogonalLoop=1;jettySize=auto;html=1;exitX=0;exitY=0.5;exitDx=0;exitDy=0;endArrow=block;endFill=0;" parent="1" source="DW6Q15kop0yDBr9HgBJc-26" target="DW6Q15kop0yDBr9HgBJc-5" edge="1">
          <mxGeometry relative="1" as="geometry" />
        </mxCell>
        <mxCell id="DW6Q15kop0yDBr9HgBJc-26" value="Tạo hợp đồng" style="ellipse;whiteSpace=wrap;html=1;" parent="1" vertex="1">
          <mxGeometry x="570" y="430" width="150" height="40" as="geometry" />
        </mxCell>
        <mxCell id="DW6Q15kop0yDBr9HgBJc-27" value="Xóa hợp đồng" style="ellipse;whiteSpace=wrap;html=1;" parent="1" vertex="1">
          <mxGeometry x="570" y="570" width="150" height="40" as="geometry" />
        </mxCell>
        <mxCell id="DW6Q15kop0yDBr9HgBJc-28" value="Sửa hợp đồng" style="ellipse;whiteSpace=wrap;html=1;" parent="1" vertex="1">
          <mxGeometry x="570" y="500" width="150" height="40" as="geometry" />
        </mxCell>
        <mxCell id="DW6Q15kop0yDBr9HgBJc-30" style="edgeStyle=orthogonalEdgeStyle;rounded=0;orthogonalLoop=1;jettySize=auto;html=1;exitX=0;exitY=0.5;exitDx=0;exitDy=0;entryX=0.91;entryY=0.798;entryDx=0;entryDy=0;entryPerimeter=0;endArrow=block;endFill=0;" parent="1" source="DW6Q15kop0yDBr9HgBJc-28" target="DW6Q15kop0yDBr9HgBJc-5" edge="1">
          <mxGeometry relative="1" as="geometry" />
        </mxCell>
        <mxCell id="DW6Q15kop0yDBr9HgBJc-31" style="edgeStyle=orthogonalEdgeStyle;rounded=0;orthogonalLoop=1;jettySize=auto;html=1;exitX=0;exitY=0.5;exitDx=0;exitDy=0;entryX=0.563;entryY=0.984;entryDx=0;entryDy=0;entryPerimeter=0;endArrow=block;endFill=0;" parent="1" source="DW6Q15kop0yDBr9HgBJc-27" target="DW6Q15kop0yDBr9HgBJc-5" edge="1">
          <mxGeometry relative="1" as="geometry" />
        </mxCell>
        <mxCell id="DW6Q15kop0yDBr9HgBJc-32" style="edgeStyle=orthogonalEdgeStyle;rounded=0;orthogonalLoop=1;jettySize=auto;html=1;exitX=0;exitY=0.5;exitDx=0;exitDy=0;endArrow=block;endFill=0;" parent="1" source="DW6Q15kop0yDBr9HgBJc-12" target="DW6Q15kop0yDBr9HgBJc-7" edge="1">
          <mxGeometry relative="1" as="geometry">
            <Array as="points">
              <mxPoint x="370" y="200" />
            </Array>
          </mxGeometry>
        </mxCell>
        <mxCell id="DW6Q15kop0yDBr9HgBJc-37" value="Tra cứu hợp đồng" style="ellipse;whiteSpace=wrap;html=1;" parent="1" vertex="1">
          <mxGeometry x="460" y="370" width="150" height="40" as="geometry" />
        </mxCell>
        <mxCell id="DW6Q15kop0yDBr9HgBJc-42" value="Quản lý an ninh" style="ellipse;whiteSpace=wrap;html=1;" parent="1" vertex="1">
          <mxGeometry x="240" y="90" width="181" height="80" as="geometry" />
        </mxCell>
        <mxCell id="DW6Q15kop0yDBr9HgBJc-45" style="edgeStyle=orthogonalEdgeStyle;rounded=0;orthogonalLoop=1;jettySize=auto;html=1;entryX=0;entryY=0;entryDx=0;entryDy=0;endArrow=block;endFill=0;" parent="1" source="DW6Q15kop0yDBr9HgBJc-44" target="DW6Q15kop0yDBr9HgBJc-42" edge="1">
          <mxGeometry relative="1" as="geometry" />
        </mxCell>
        <mxCell id="DW6Q15kop0yDBr9HgBJc-44" value="Giám sát (realtime)" style="ellipse;whiteSpace=wrap;html=1;" parent="1" vertex="1">
          <mxGeometry x="30" y="30" width="150" height="40" as="geometry" />
        </mxCell>
        <mxCell id="DW6Q15kop0yDBr9HgBJc-51" style="edgeStyle=orthogonalEdgeStyle;rounded=0;orthogonalLoop=1;jettySize=auto;html=1;exitX=0;exitY=0.5;exitDx=0;exitDy=0;endArrow=block;endFill=0;" parent="1" source="DW6Q15kop0yDBr9HgBJc-50" target="DW6Q15kop0yDBr9HgBJc-42" edge="1">
          <mxGeometry relative="1" as="geometry">
            <Array as="points">
              <mxPoint x="390" y="70" />
            </Array>
          </mxGeometry>
        </mxCell>
        <mxCell id="DW6Q15kop0yDBr9HgBJc-50" value="Thêm dữ liệu gương mặt" style="ellipse;whiteSpace=wrap;html=1;" parent="1" vertex="1">
          <mxGeometry x="470" y="50" width="150" height="40" as="geometry" />
        </mxCell>
        <mxCell id="DW6Q15kop0yDBr9HgBJc-65" style="edgeStyle=orthogonalEdgeStyle;rounded=0;orthogonalLoop=1;jettySize=auto;html=1;endArrow=openThin;endFill=0;exitX=0.5;exitY=0;exitDx=0;exitDy=0;exitPerimeter=0;" parent="1" source="DW6Q15kop0yDBr9HgBJc-52" target="DW6Q15kop0yDBr9HgBJc-53" edge="1">
          <mxGeometry relative="1" as="geometry">
            <Array as="points">
              <mxPoint x="241" y="790" />
              <mxPoint x="241" y="765" />
            </Array>
          </mxGeometry>
        </mxCell>
        <mxCell id="RYY4jtcMpG90oxifFVs--7" style="edgeStyle=orthogonalEdgeStyle;rounded=0;orthogonalLoop=1;jettySize=auto;html=1;entryX=0.5;entryY=1;entryDx=0;entryDy=0;endArrow=openThin;endFill=0;" parent="1" source="DW6Q15kop0yDBr9HgBJc-52" target="RYY4jtcMpG90oxifFVs--4" edge="1">
          <mxGeometry relative="1" as="geometry" />
        </mxCell>
        <mxCell id="RYY4jtcMpG90oxifFVs--25" style="edgeStyle=orthogonalEdgeStyle;rounded=0;orthogonalLoop=1;jettySize=auto;html=1;entryX=0.5;entryY=1;entryDx=0;entryDy=0;endArrow=openThin;endFill=0;" parent="1" source="DW6Q15kop0yDBr9HgBJc-52" target="RYY4jtcMpG90oxifFVs--23" edge="1">
          <mxGeometry relative="1" as="geometry" />
        </mxCell>
        <mxCell id="DW6Q15kop0yDBr9HgBJc-52" value="Người thuê" style="shape=umlActor;verticalLabelPosition=bottom;verticalAlign=top;html=1;outlineConnect=0;" parent="1" vertex="1">
          <mxGeometry x="50" y="790" width="30" height="60" as="geometry" />
        </mxCell>
        <mxCell id="DW6Q15kop0yDBr9HgBJc-53" value="Quản lý thanh toán" style="ellipse;whiteSpace=wrap;html=1;" parent="1" vertex="1">
          <mxGeometry x="150" y="660" width="181" height="80" as="geometry" />
        </mxCell>
        <mxCell id="DW6Q15kop0yDBr9HgBJc-62" style="edgeStyle=orthogonalEdgeStyle;rounded=0;orthogonalLoop=1;jettySize=auto;html=1;exitX=0;exitY=0.5;exitDx=0;exitDy=0;endArrow=block;endFill=0;" parent="1" source="DW6Q15kop0yDBr9HgBJc-55" target="DW6Q15kop0yDBr9HgBJc-53" edge="1">
          <mxGeometry relative="1" as="geometry" />
        </mxCell>
        <mxCell id="DW6Q15kop0yDBr9HgBJc-63" value="&amp;lt;&amp;lt;include&amp;gt;&amp;gt;" style="edgeStyle=orthogonalEdgeStyle;rounded=0;orthogonalLoop=1;jettySize=auto;html=1;exitX=0.5;exitY=1;exitDx=0;exitDy=0;startArrow=openThin;startFill=0;endArrow=none;endFill=0;dashed=1;dashPattern=12 12;" parent="1" source="DW6Q15kop0yDBr9HgBJc-55" target="DW6Q15kop0yDBr9HgBJc-57" edge="1">
          <mxGeometry relative="1" as="geometry" />
        </mxCell>
        <mxCell id="DW6Q15kop0yDBr9HgBJc-55" value="Tra cứu hóa đơn" style="ellipse;whiteSpace=wrap;html=1;" parent="1" vertex="1">
          <mxGeometry x="421" y="680" width="150" height="40" as="geometry" />
        </mxCell>
        <mxCell id="DW6Q15kop0yDBr9HgBJc-61" style="edgeStyle=orthogonalEdgeStyle;rounded=0;orthogonalLoop=1;jettySize=auto;html=1;exitX=0;exitY=0.5;exitDx=0;exitDy=0;endArrow=block;endFill=0;" parent="1" source="DW6Q15kop0yDBr9HgBJc-56" target="DW6Q15kop0yDBr9HgBJc-53" edge="1">
          <mxGeometry relative="1" as="geometry">
            <Array as="points">
              <mxPoint x="241" y="640" />
            </Array>
          </mxGeometry>
        </mxCell>
        <mxCell id="DW6Q15kop0yDBr9HgBJc-56" value="Tra cứu giao dịch" style="ellipse;whiteSpace=wrap;html=1;" parent="1" vertex="1">
          <mxGeometry x="320" y="620" width="150" height="40" as="geometry" />
        </mxCell>
        <mxCell id="RYY4jtcMpG90oxifFVs--16" style="edgeStyle=orthogonalEdgeStyle;rounded=0;orthogonalLoop=1;jettySize=auto;html=1;exitX=0.5;exitY=1;exitDx=0;exitDy=0;entryX=0.5;entryY=1;entryDx=0;entryDy=0;endArrow=openThin;endFill=0;dashed=1;dashPattern=12 12;" parent="1" source="DW6Q15kop0yDBr9HgBJc-57" target="RYY4jtcMpG90oxifFVs--5" edge="1">
          <mxGeometry relative="1" as="geometry">
            <Array as="points">
              <mxPoint x="435" y="900" />
              <mxPoint x="-425" y="900" />
            </Array>
          </mxGeometry>
        </mxCell>
        <mxCell id="RYY4jtcMpG90oxifFVs--18" value="&amp;lt;&amp;lt;extend&amp;gt;&amp;gt;" style="edgeLabel;html=1;align=center;verticalAlign=middle;resizable=0;points=[];" parent="RYY4jtcMpG90oxifFVs--16" vertex="1" connectable="0">
          <mxGeometry x="-0.1511" relative="1" as="geometry">
            <mxPoint as="offset" />
          </mxGeometry>
        </mxCell>
        <mxCell id="DW6Q15kop0yDBr9HgBJc-57" value="Thanh toán" style="ellipse;whiteSpace=wrap;html=1;" parent="1" vertex="1">
          <mxGeometry x="360" y="800" width="150" height="40" as="geometry" />
        </mxCell>
        <mxCell id="RYY4jtcMpG90oxifFVs--1" value="Quản lý thông báo" style="ellipse;whiteSpace=wrap;html=1;" parent="1" vertex="1">
          <mxGeometry x="-270" y="319" width="181" height="80" as="geometry" />
        </mxCell>
        <mxCell id="RYY4jtcMpG90oxifFVs--8" style="edgeStyle=orthogonalEdgeStyle;rounded=0;orthogonalLoop=1;jettySize=auto;html=1;entryX=0;entryY=0.5;entryDx=0;entryDy=0;endArrow=block;endFill=0;" parent="1" source="RYY4jtcMpG90oxifFVs--4" target="RYY4jtcMpG90oxifFVs--1" edge="1">
          <mxGeometry relative="1" as="geometry">
            <Array as="points">
              <mxPoint x="-340" y="359" />
            </Array>
          </mxGeometry>
        </mxCell>
        <mxCell id="RYY4jtcMpG90oxifFVs--4" value="Xem thông báo" style="ellipse;whiteSpace=wrap;html=1;" parent="1" vertex="1">
          <mxGeometry x="-413" y="600" width="150" height="40" as="geometry" />
        </mxCell>
        <mxCell id="RYY4jtcMpG90oxifFVs--14" style="edgeStyle=orthogonalEdgeStyle;rounded=0;orthogonalLoop=1;jettySize=auto;html=1;exitX=0.5;exitY=0;exitDx=0;exitDy=0;entryX=0;entryY=0.5;entryDx=0;entryDy=0;startArrow=openThin;startFill=0;endArrow=none;endFill=0;dashed=1;dashPattern=12 12;" parent="1" source="RYY4jtcMpG90oxifFVs--5" target="DW6Q15kop0yDBr9HgBJc-44" edge="1">
          <mxGeometry relative="1" as="geometry" />
        </mxCell>
        <mxCell id="RYY4jtcMpG90oxifFVs--15" value="&amp;lt;&amp;lt;extend&amp;gt;&amp;gt;" style="edgeLabel;html=1;align=center;verticalAlign=middle;resizable=0;points=[];" parent="RYY4jtcMpG90oxifFVs--14" vertex="1" connectable="0">
          <mxGeometry x="0.2188" relative="1" as="geometry">
            <mxPoint as="offset" />
          </mxGeometry>
        </mxCell>
        <mxCell id="RYY4jtcMpG90oxifFVs--5" value="Tạo thông báo" style="ellipse;whiteSpace=wrap;html=1;" parent="1" vertex="1">
          <mxGeometry x="-500" y="339" width="150" height="40" as="geometry" />
        </mxCell>
        <mxCell id="RYY4jtcMpG90oxifFVs--9" style="edgeStyle=orthogonalEdgeStyle;rounded=0;orthogonalLoop=1;jettySize=auto;html=1;endArrow=block;endFill=0;" parent="1" source="RYY4jtcMpG90oxifFVs--6" target="RYY4jtcMpG90oxifFVs--1" edge="1">
          <mxGeometry relative="1" as="geometry" />
        </mxCell>
        <mxCell id="RYY4jtcMpG90oxifFVs--19" style="edgeStyle=orthogonalEdgeStyle;rounded=0;orthogonalLoop=1;jettySize=auto;html=1;exitX=0;exitY=0.5;exitDx=0;exitDy=0;entryX=1;entryY=0;entryDx=0;entryDy=0;dashed=1;dashPattern=12 12;endArrow=openThin;endFill=0;" parent="1" source="RYY4jtcMpG90oxifFVs--6" target="RYY4jtcMpG90oxifFVs--5" edge="1">
          <mxGeometry relative="1" as="geometry" />
        </mxCell>
        <mxCell id="RYY4jtcMpG90oxifFVs--21" value="&amp;lt;&amp;lt;extend&amp;gt;&amp;gt;" style="edgeLabel;html=1;align=center;verticalAlign=middle;resizable=0;points=[];" parent="RYY4jtcMpG90oxifFVs--19" vertex="1" connectable="0">
          <mxGeometry x="-0.2004" y="-4" relative="1" as="geometry">
            <mxPoint as="offset" />
          </mxGeometry>
        </mxCell>
        <mxCell id="RYY4jtcMpG90oxifFVs--6" value="Đăng tin" style="ellipse;whiteSpace=wrap;html=1;" parent="1" vertex="1">
          <mxGeometry x="-254.5" y="210" width="150" height="40" as="geometry" />
        </mxCell>
        <mxCell id="RYY4jtcMpG90oxifFVs--23" value="Quản lý tin nhắn" style="ellipse;whiteSpace=wrap;html=1;" parent="1" vertex="1">
          <mxGeometry x="-190" y="660" width="181" height="80" as="geometry" />
        </mxCell>
        <mxCell id="RYY4jtcMpG90oxifFVs--30" style="edgeStyle=orthogonalEdgeStyle;rounded=0;orthogonalLoop=1;jettySize=auto;html=1;exitX=0.5;exitY=1;exitDx=0;exitDy=0;entryX=0;entryY=0.5;entryDx=0;entryDy=0;endArrow=block;endFill=0;" parent="1" source="RYY4jtcMpG90oxifFVs--26" target="RYY4jtcMpG90oxifFVs--23" edge="1">
          <mxGeometry relative="1" as="geometry" />
        </mxCell>
        <mxCell id="RYY4jtcMpG90oxifFVs--26" value="Nhắn tin" style="ellipse;whiteSpace=wrap;html=1;" parent="1" vertex="1">
          <mxGeometry x="-300" y="490" width="150" height="40" as="geometry" />
        </mxCell>
        <mxCell id="RYY4jtcMpG90oxifFVs--29" style="edgeStyle=orthogonalEdgeStyle;rounded=0;orthogonalLoop=1;jettySize=auto;html=1;exitX=1;exitY=0.5;exitDx=0;exitDy=0;entryX=0.319;entryY=0.005;entryDx=0;entryDy=0;endArrow=block;endFill=0;entryPerimeter=0;" parent="1" source="RYY4jtcMpG90oxifFVs--27" target="RYY4jtcMpG90oxifFVs--23" edge="1">
          <mxGeometry relative="1" as="geometry">
            <Array as="points">
              <mxPoint x="-132" y="460" />
            </Array>
          </mxGeometry>
        </mxCell>
        <mxCell id="RYY4jtcMpG90oxifFVs--27" value="Xem tin nhắn" style="ellipse;whiteSpace=wrap;html=1;" parent="1" vertex="1">
          <mxGeometry x="-300" y="440" width="150" height="40" as="geometry" />
        </mxCell>
        <mxCell id="RYY4jtcMpG90oxifFVs--31" style="edgeStyle=orthogonalEdgeStyle;rounded=0;orthogonalLoop=1;jettySize=auto;html=1;entryX=1;entryY=1;entryDx=0;entryDy=0;endArrow=openThin;endFill=0;dashed=1;dashPattern=12 12;" parent="1" source="RYY4jtcMpG90oxifFVs--26" target="RYY4jtcMpG90oxifFVs--5" edge="1">
          <mxGeometry relative="1" as="geometry">
            <Array as="points">
              <mxPoint x="-372" y="510" />
            </Array>
          </mxGeometry>
        </mxCell>
        <mxCell id="RYY4jtcMpG90oxifFVs--32" value="&amp;lt;&amp;lt;extend&amp;gt;&amp;gt;" style="edgeLabel;html=1;align=center;verticalAlign=middle;resizable=0;points=[];" parent="RYY4jtcMpG90oxifFVs--31" vertex="1" connectable="0">
          <mxGeometry x="0.3237" y="-3" relative="1" as="geometry">
            <mxPoint x="-1" y="66" as="offset" />
          </mxGeometry>
        </mxCell>
        <mxCell id="JTcFIvKp1Fa_ZqujpI_b-2" style="edgeStyle=orthogonalEdgeStyle;rounded=0;orthogonalLoop=1;jettySize=auto;html=1;exitX=0;exitY=0;exitDx=0;exitDy=0;entryX=0.894;entryY=0.825;entryDx=0;entryDy=0;entryPerimeter=0;endArrow=block;endFill=0;" edge="1" parent="1" source="DW6Q15kop0yDBr9HgBJc-57" target="DW6Q15kop0yDBr9HgBJc-53">
          <mxGeometry relative="1" as="geometry" />
        </mxCell>
        <mxCell id="JTcFIvKp1Fa_ZqujpI_b-4" value="Thêm dịch vụ" style="ellipse;whiteSpace=wrap;html=1;" vertex="1" parent="1">
          <mxGeometry x="160" y="520" width="150" height="40" as="geometry" />
        </mxCell>
        <mxCell id="JTcFIvKp1Fa_ZqujpI_b-9" style="edgeStyle=orthogonalEdgeStyle;rounded=0;orthogonalLoop=1;jettySize=auto;html=1;exitX=0.5;exitY=1;exitDx=0;exitDy=0;" edge="1" parent="1" source="JTcFIvKp1Fa_ZqujpI_b-7" target="DW6Q15kop0yDBr9HgBJc-53">
          <mxGeometry relative="1" as="geometry" />
        </mxCell>
        <mxCell id="JTcFIvKp1Fa_ZqujpI_b-10" style="edgeStyle=orthogonalEdgeStyle;rounded=0;orthogonalLoop=1;jettySize=auto;html=1;exitX=1;exitY=0;exitDx=0;exitDy=0;entryX=0.5;entryY=1;entryDx=0;entryDy=0;endArrow=openThin;endFill=0;dashed=1;dashPattern=12 12;" edge="1" parent="1" source="JTcFIvKp1Fa_ZqujpI_b-7" target="JTcFIvKp1Fa_ZqujpI_b-4">
          <mxGeometry relative="1" as="geometry">
            <Array as="points">
              <mxPoint x="88" y="590" />
              <mxPoint x="235" y="590" />
            </Array>
          </mxGeometry>
        </mxCell>
        <mxCell id="JTcFIvKp1Fa_ZqujpI_b-11" value="&amp;lt;&amp;lt;include&amp;gt;&amp;gt;" style="edgeLabel;html=1;align=center;verticalAlign=middle;resizable=0;points=[];" vertex="1" connectable="0" parent="JTcFIvKp1Fa_ZqujpI_b-10">
          <mxGeometry x="0.0667" y="-1" relative="1" as="geometry">
            <mxPoint as="offset" />
          </mxGeometry>
        </mxCell>
        <mxCell id="JTcFIvKp1Fa_ZqujpI_b-7" value="Hoàn thành hóa đơn" style="ellipse;whiteSpace=wrap;html=1;" vertex="1" parent="1">
          <mxGeometry x="-40" y="620" width="150" height="40" as="geometry" />
        </mxCell>
        <mxCell id="JTcFIvKp1Fa_ZqujpI_b-14" style="edgeStyle=orthogonalEdgeStyle;rounded=0;orthogonalLoop=1;jettySize=auto;html=1;exitX=1;exitY=0.5;exitDx=0;exitDy=0;entryX=1;entryY=0.5;entryDx=0;entryDy=0;dashed=1;dashPattern=12 12;endArrow=none;endFill=0;startArrow=openThin;startFill=0;" edge="1" parent="1" source="JTcFIvKp1Fa_ZqujpI_b-12" target="DW6Q15kop0yDBr9HgBJc-50">
          <mxGeometry relative="1" as="geometry">
            <Array as="points">
              <mxPoint x="760" y="120" />
              <mxPoint x="760" y="70" />
            </Array>
          </mxGeometry>
        </mxCell>
        <mxCell id="JTcFIvKp1Fa_ZqujpI_b-15" value="&amp;lt;&amp;lt;include&amp;gt;&amp;gt;" style="edgeLabel;html=1;align=center;verticalAlign=middle;resizable=0;points=[];" vertex="1" connectable="0" parent="JTcFIvKp1Fa_ZqujpI_b-14">
          <mxGeometry x="0.1055" relative="1" as="geometry">
            <mxPoint x="-13" as="offset" />
          </mxGeometry>
        </mxCell>
        <mxCell id="JTcFIvKp1Fa_ZqujpI_b-12" value="Tra cứu cư dân" style="ellipse;whiteSpace=wrap;html=1;" vertex="1" parent="1">
          <mxGeometry x="570" y="100" width="150" height="40" as="geometry" />
        </mxCell>
        <mxCell id="JTcFIvKp1Fa_ZqujpI_b-13" style="edgeStyle=orthogonalEdgeStyle;rounded=0;orthogonalLoop=1;jettySize=auto;html=1;entryX=0.994;entryY=0.375;entryDx=0;entryDy=0;entryPerimeter=0;endArrow=block;endFill=0;" edge="1" parent="1" source="JTcFIvKp1Fa_ZqujpI_b-12" target="DW6Q15kop0yDBr9HgBJc-7">
          <mxGeometry relative="1" as="geometry">
            <Array as="points">
              <mxPoint x="450" y="120" />
              <mxPoint x="450" y="300" />
            </Array>
          </mxGeometry>
        </mxCell>
      </root>
    </mxGraphModel>
  </diagram>
</mxfile>
